<svg width="150" height="151" viewBox="0 0 150 151" fill="none" xmlns="http://www.w3.org/2000/svg">
<g clip-path="url(#clip0)">
<path d="M57.5 90.9374C43.6926 90.9374 32.5 102.13 32.5 115.937C32.5 129.745 43.6926 140.937 57.5 140.937C71.3074 140.937 82.5 129.745 82.5 115.937C82.4854 102.136 71.3013 90.952 57.5 90.9374ZM57.5 135.937C46.4539 135.937 37.5 126.984 37.5 115.937C37.5 104.891 46.4539 95.9374 57.5 95.9374C68.5461 95.9374 77.5 104.891 77.5 115.937C77.4878 126.977 68.54 135.925 57.5 135.937Z" fill="#2857B4"/>
<path d="M57.5 108.437C60.553 108.437 62.5 109.917 62.5 110.937H67.5C67.5 107.385 64.353 104.508 60 103.688V100.937H55V103.688C50.647 104.502 47.5 107.38 47.5 110.937C47.5 115.145 51.8921 118.437 57.5 118.437C60.553 118.437 62.5 119.917 62.5 120.937C62.5 121.958 60.553 123.437 57.5 123.437C54.447 123.437 52.5 121.958 52.5 120.937H47.5C47.5 124.49 50.647 127.367 55 128.187V130.937H60V128.187C64.353 127.373 67.5 124.494 67.5 120.937C67.5 116.73 63.1079 113.437 57.5 113.437C54.447 113.437 52.5 111.958 52.5 110.937C52.5 109.917 54.447 108.437 57.5 108.437Z" fill="#2857B4"/>
<path d="M127.5 145.937H22.5V85.9374H62.5C66.6419 85.9374 70 82.5792 70 78.4374V15.9374H97.5V45.9374H127.5V80.9374H132.5V42.4022L101.035 10.9374H70V8.43738C70 4.29553 66.6419 0.937378 62.5 0.937378H7.5C3.35815 0.937378 0 4.29553 0 8.43738V78.4374C0 82.5792 3.35815 85.9374 7.5 85.9374H17.5V150.937H132.5V115.937H127.5V145.937ZM102.5 19.4725L123.965 40.9374H102.5V19.4725ZM5 78.4374V8.43738C5 7.05676 6.11939 5.93738 7.5 5.93738H62.5C63.8806 5.93738 65 7.05676 65 8.43738V78.4374C65 79.818 63.8806 80.9374 62.5 80.9374H7.5C6.11939 80.9374 5 79.818 5 78.4374Z" fill="#2857B4"/>
<path d="M80 63.4374H85V68.4374H80V63.4374Z" fill="#2857B4"/>
<path d="M90 63.4374H120V68.4374H90V63.4374Z" fill="#2857B4"/>
<path d="M80 53.4374H85V58.4374H80V53.4374Z" fill="#2857B4"/>
<path d="M90 53.4374H120V58.4374H90V53.4374Z" fill="#2857B4"/>
<path d="M80 73.4374H85V78.4374H80V73.4374Z" fill="#2857B4"/>
<path d="M90 73.4374H120V78.4374H90V73.4374Z" fill="#2857B4"/>
<path d="M80 83.4374H85V88.4374H80V83.4374Z" fill="#2857B4"/>
<path d="M90 83.4374H120V88.4374H90V83.4374Z" fill="#2857B4"/>
<path d="M62.5 8.43738H7.5V25.9374H62.5V8.43738ZM57.5 20.9374H12.5V13.4374H57.5V20.9374Z" fill="#2857B4"/>
<path d="M20 28.4374H15C12.2388 28.4374 10 30.6761 10 33.4374V38.4374C10 41.1986 12.2388 43.4374 15 43.4374H20C22.7612 43.4374 25 41.1986 25 38.4374V33.4374C25 30.6761 22.7612 28.4374 20 28.4374ZM15 38.4374V33.4374H20V38.4374H15Z" fill="#2857B4"/>
<path d="M37.5 28.4374H32.5C29.7388 28.4374 27.5 30.6761 27.5 33.4374V38.4374C27.5 41.1986 29.7388 43.4374 32.5 43.4374H37.5C40.2612 43.4374 42.5 41.1986 42.5 38.4374V33.4374C42.5 30.6761 40.2612 28.4374 37.5 28.4374ZM32.5 38.4374V33.4374H37.5V38.4374H32.5Z" fill="#2857B4"/>
<path d="M55 28.4374H50C47.2388 28.4374 45 30.6761 45 33.4374V38.4374C45 41.1986 47.2388 43.4374 50 43.4374H55C57.7612 43.4374 60 41.1986 60 38.4374V33.4374C60 30.6761 57.7612 28.4374 55 28.4374ZM50 38.4374V33.4374H55V38.4374H50Z" fill="#2857B4"/>
<path d="M20 45.9374H15C12.2388 45.9374 10 48.1761 10 50.9374V55.9374C10 58.6986 12.2388 60.9374 15 60.9374H20C22.7612 60.9374 25 58.6986 25 55.9374V50.9374C25 48.1761 22.7612 45.9374 20 45.9374ZM15 55.9374V50.9374H20V55.9374H15Z" fill="#2857B4"/>
<path d="M37.5 45.9374H32.5C29.7388 45.9374 27.5 48.1761 27.5 50.9374V55.9374C27.5 58.6986 29.7388 60.9374 32.5 60.9374H37.5C40.2612 60.9374 42.5 58.6986 42.5 55.9374V50.9374C42.5 48.1761 40.2612 45.9374 37.5 45.9374ZM32.5 55.9374V50.9374H37.5V55.9374H32.5Z" fill="#2857B4"/>
<path d="M55 45.9374H50C47.2388 45.9374 45 48.1761 45 50.9374V55.9374C45 58.6986 47.2388 60.9374 50 60.9374H55C57.7612 60.9374 60 58.6986 60 55.9374V50.9374C60 48.1761 57.7612 45.9374 55 45.9374ZM50 55.9374V50.9374H55V55.9374H50Z" fill="#2857B4"/>
<path d="M20 63.4374H15C12.2388 63.4374 10 65.6761 10 68.4374V73.4374C10 76.1986 12.2388 78.4374 15 78.4374H20C22.7612 78.4374 25 76.1986 25 73.4374V68.4374C25 65.6761 22.7612 63.4374 20 63.4374ZM15 73.4374V68.4374H20V73.4374H15Z" fill="#2857B4"/>
<path d="M37.5 63.4374H32.5C29.7388 63.4374 27.5 65.6761 27.5 68.4374V73.4374C27.5 76.1986 29.7388 78.4374 32.5 78.4374H37.5C40.2612 78.4374 42.5 76.1986 42.5 73.4374V68.4374C42.5 65.6761 40.2612 63.4374 37.5 63.4374ZM32.5 73.4374V68.4374H37.5V73.4374H32.5Z" fill="#2857B4"/>
<path d="M55 63.4374H50C47.2388 63.4374 45 65.6761 45 68.4374V73.4374C45 76.1986 47.2388 78.4374 50 78.4374H55C57.7612 78.4374 60 76.1986 60 73.4374V68.4374C60 65.6761 57.7612 63.4374 55 63.4374ZM50 73.4374V68.4374H55V73.4374H50Z" fill="#2857B4"/>
<path d="M147.729 80.7079C144.762 77.8746 140.093 77.8746 137.125 80.7079L94.2676 123.564C94.0601 123.774 93.8904 124.018 93.7671 124.287L87.7319 137.392C87.2961 138.342 87.4976 139.464 88.2373 140.203C88.9758 140.942 90.0977 141.144 91.0474 140.708L104.153 134.673C104.421 134.549 104.666 134.381 104.875 134.172L147.729 91.3146C150.659 88.3861 150.659 83.6364 147.729 80.7079ZM101.653 130.317L95.1025 133.335L98.1201 126.785L130.074 94.8278L133.61 98.3629L101.653 130.317ZM137.152 94.8168L133.617 91.2828L135.367 89.5323L138.903 93.0675L137.152 94.8168ZM144.203 87.7672L142.435 89.5348L138.9 85.9996L140.67 84.2321C141.658 83.2872 143.214 83.2872 144.203 84.2321C145.178 85.2086 145.178 86.7906 144.203 87.7672Z" fill="#2857B4"/>
</g>
<defs>
<clipPath id="clip0">
<rect width="150" height="150" fill="white" transform="translate(0 0.937378)"/>
</clipPath>
</defs>
</svg>
