<svg width="150" height="151" viewBox="0 0 150 151" fill="none" xmlns="http://www.w3.org/2000/svg">
<g clip-path="url(#clip0)">
<path d="M135.352 13.828H121.387V9.72644C121.387 4.88015 117.444 0.937378 112.598 0.937378C107.751 0.937378 103.809 4.88015 103.809 9.72644V13.828H54.5897V9.72644C54.5897 4.88015 50.647 0.937378 45.8007 0.937378C40.9544 0.937378 37.0116 4.88015 37.0116 9.72644V13.9364C36.7626 13.8676 36.5016 13.828 36.2306 13.828H24.5575C16.4804 13.828 9.90908 20.3993 9.90908 28.4764V78.3787C9.90908 79.9968 11.221 81.3084 12.8388 81.3084C14.4565 81.3084 15.7685 79.9968 15.7685 78.3787V44.0038H121.387C123.004 44.0038 124.316 42.6922 124.316 41.0741C124.316 39.456 123.004 38.1444 121.387 38.1444H15.7685V28.4764C15.7685 23.6302 19.7112 19.6874 24.5575 19.6874H36.2306C36.5016 19.6874 36.7626 19.6475 37.0116 19.579V23.3495C37.0116 28.1958 40.9544 32.1385 45.8007 32.1385C50.647 32.1385 54.5897 28.1958 54.5897 23.3495V19.6874H103.809V23.3495C103.809 28.1958 107.751 32.1385 112.598 32.1385C117.444 32.1385 121.387 28.1958 121.387 23.3495V19.6874H135.352C140.198 19.6874 144.141 23.6302 144.141 28.4764V139.803C144.141 142.711 141.774 145.078 138.865 145.078C135.957 145.078 133.59 142.711 133.59 139.803V132.224C133.59 130.606 132.278 129.294 130.661 129.294H96.5821C94.9644 129.294 93.6524 130.606 93.6524 132.224C93.6524 133.842 94.9644 135.154 96.5821 135.154H127.731V139.803C127.731 141.71 128.214 143.507 129.062 145.078H11.1328C8.2251 145.078 5.85938 142.712 5.85938 139.805V135.154H71.4331C73.0509 135.154 74.3628 133.842 74.3628 132.224C74.3628 130.606 73.0509 129.294 71.4331 129.294H42.1608C47.2802 124.885 50.531 118.364 50.531 111.094C50.531 97.847 39.7541 87.0702 26.5075 87.0702C13.2609 87.0702 2.48408 97.847 2.48408 111.094C2.48408 118.364 5.73486 124.885 10.8542 129.294H2.92969C1.31191 129.294 0 130.606 0 132.224V139.805C0 145.943 4.99424 150.937 11.1328 150.937H138.865C145.005 150.937 150 145.943 150 139.803V28.4764C150 20.3993 143.429 13.828 135.352 13.828ZM48.7304 23.3495C48.7304 24.9649 47.4161 26.2792 45.8007 26.2792C44.1853 26.2792 42.871 24.9649 42.871 23.3495V9.72644C42.871 8.11101 44.1853 6.79675 45.8007 6.79675C47.4161 6.79675 48.7304 8.11101 48.7304 9.72644V23.3495ZM115.527 23.3495C115.527 24.9649 114.213 26.2792 112.598 26.2792C110.982 26.2792 109.668 24.9649 109.668 23.3495V9.72644C109.668 8.11101 110.982 6.79675 112.598 6.79675C114.213 6.79675 115.527 8.11101 115.527 9.72644V23.3495ZM8.34346 111.094C8.34346 101.078 16.4918 92.9296 26.5075 92.9296C36.5232 92.9296 44.6716 101.078 44.6716 111.094C44.6716 121.109 36.5232 129.258 26.5075 129.258C16.4918 129.258 8.34346 121.109 8.34346 111.094Z" fill="#2857B4"/>
<path d="M137.2 39.0028C136.655 38.4579 135.899 38.1444 135.129 38.1444C134.358 38.1444 133.603 38.4579 133.058 39.0028C132.513 39.5477 132.199 40.3036 132.199 41.0741C132.199 41.8446 132.512 42.6005 133.058 43.1454C133.603 43.6903 134.358 44.0038 135.129 44.0038C135.899 44.0038 136.655 43.6903 137.2 43.1454C137.745 42.6005 138.059 41.8446 138.059 41.0741C138.059 40.3036 137.745 39.5477 137.2 39.0028Z" fill="#2857B4"/>
<path d="M87.4948 130.151C86.9501 129.606 86.1943 129.296 85.4238 129.296C84.6533 129.296 83.8974 129.606 83.3525 130.151C82.8076 130.699 82.4941 131.452 82.4941 132.223C82.4941 132.996 82.8073 133.749 83.3525 134.297C83.8974 134.842 84.6533 135.152 85.4238 135.152C86.1943 135.152 86.9501 134.842 87.4948 134.297C88.0397 133.749 88.3535 132.993 88.3535 132.223C88.3535 131.452 88.04 130.699 87.4948 130.151Z" fill="#2857B4"/>
<path d="M66.2827 89.9999C60.1441 89.9999 55.1498 94.9941 55.1498 101.133C55.1498 107.271 60.1441 112.266 66.2827 112.266C72.4212 112.266 77.4155 107.271 77.4155 101.133C77.4155 94.9941 72.4212 89.9999 66.2827 89.9999ZM66.2827 106.406C63.3749 106.406 61.0092 104.04 61.0092 101.133C61.0092 98.225 63.3749 95.8593 66.2827 95.8593C69.1904 95.8593 71.5561 98.225 71.5561 101.133C71.5561 104.04 69.1904 106.406 66.2827 106.406Z" fill="#2857B4"/>
<path d="M93.6263 89.9999C87.4877 89.9999 82.4935 94.9941 82.4935 101.133C82.4935 107.271 87.4877 112.266 93.6263 112.266C99.7649 112.266 104.759 107.271 104.759 101.133C104.759 94.9941 99.7649 89.9999 93.6263 89.9999ZM93.6263 106.406C90.7186 106.406 88.3528 104.04 88.3528 101.133C88.3528 98.225 90.7186 95.8593 93.6263 95.8593C96.534 95.8593 98.8997 98.225 98.8997 101.133C98.8997 104.04 96.534 106.406 93.6263 106.406Z" fill="#2857B4"/>
<path d="M120.97 89.9999C114.832 89.9999 109.837 94.9941 109.837 101.133C109.837 107.271 114.832 112.266 120.97 112.266C127.109 112.266 132.103 107.271 132.103 101.133C132.103 94.9941 127.109 89.9999 120.97 89.9999ZM120.97 106.406C118.062 106.406 115.697 104.04 115.697 101.133C115.697 98.225 118.062 95.8593 120.97 95.8593C123.878 95.8593 126.244 98.225 126.244 101.133C126.244 104.04 123.878 106.406 120.97 106.406Z" fill="#2857B4"/>
<path d="M38.939 59.5311C32.8004 59.5311 27.8062 64.5254 27.8062 70.6639C27.8062 76.8025 32.8004 81.7968 38.939 81.7968C45.0775 81.7968 50.0718 76.8025 50.0718 70.6639C50.0718 64.5254 45.0775 59.5311 38.939 59.5311ZM38.939 75.9374C36.0312 75.9374 33.6655 73.5717 33.6655 70.6639C33.6655 67.7562 36.0312 65.3905 38.939 65.3905C41.8467 65.3905 44.2124 67.7562 44.2124 70.6639C44.2124 73.5717 41.8467 75.9374 38.939 75.9374Z" fill="#2857B4"/>
<path d="M93.6263 59.5311C87.4877 59.5311 82.4935 64.5254 82.4935 70.6639C82.4935 76.8025 87.4877 81.7968 93.6263 81.7968C99.7649 81.7968 104.759 76.8025 104.759 70.6639C104.759 64.5254 99.7649 59.5311 93.6263 59.5311ZM93.6263 75.9374C90.7186 75.9374 88.3528 73.5717 88.3528 70.6639C88.3528 67.7562 90.7186 65.3905 93.6263 65.3905C96.534 65.3905 98.8997 67.7562 98.8997 70.6639C98.8997 73.5717 96.534 75.9374 93.6263 75.9374Z" fill="#2857B4"/>
<path d="M120.97 59.5311C114.832 59.5311 109.837 64.5254 109.837 70.6639C109.837 76.8025 114.832 81.7968 120.97 81.7968C127.109 81.7968 132.103 76.8025 132.103 70.6639C132.103 64.5254 127.109 59.5311 120.97 59.5311ZM120.97 75.9374C118.062 75.9374 115.697 73.5717 115.697 70.6639C115.697 67.7562 118.062 65.3905 120.97 65.3905C123.878 65.3905 126.244 67.7562 126.244 70.6639C126.244 73.5717 123.878 75.9374 120.97 75.9374Z" fill="#2857B4"/>
<path d="M66.2827 59.5311C60.1441 59.5311 55.1498 64.5254 55.1498 70.6639C55.1498 76.8025 60.1441 81.7968 66.2827 81.7968C72.4212 81.7968 77.4155 76.8025 77.4155 70.6639C77.4155 64.5254 72.4212 59.5311 66.2827 59.5311ZM66.2827 75.9374C63.3749 75.9374 61.0092 73.5717 61.0092 70.6639C61.0092 67.7562 63.3749 65.3905 66.2827 65.3905C69.1904 65.3905 71.5561 67.7562 71.5561 70.6639C71.5561 73.5717 69.1904 75.9374 66.2827 75.9374Z" fill="#2857B4"/>
<path d="M36.9444 103.954C35.8001 102.81 33.9456 102.81 32.801 103.954L23.2602 113.495L19.9997 110.234C18.8554 109.09 17.0009 109.09 15.8563 110.234C14.7122 111.378 14.7122 113.234 15.8563 114.378L21.1886 119.71C21.7382 120.259 22.4832 120.568 23.2602 120.568C24.0371 120.568 24.7821 120.259 25.3317 119.71L36.9444 108.097C38.0885 106.953 38.0885 105.098 36.9444 103.954Z" fill="#2857B4"/>
</g>
<defs>
<clipPath id="clip0">
<rect width="150" height="150" fill="white" transform="translate(0 0.937378)"/>
</clipPath>
</defs>
</svg>
