<svg width="150" height="151" viewBox="0 0 150 151" fill="none" xmlns="http://www.w3.org/2000/svg">
<g clip-path="url(#clip0)">
<path d="M102.412 62.2678C102.386 62.1909 102.355 62.1159 102.32 62.0428C102.278 61.9166 102.227 61.7938 102.167 61.6753C102.114 61.5953 102.057 61.5188 101.995 61.4453C101.929 61.3459 101.857 61.2513 101.777 61.1628C101.703 61.0972 101.625 61.0353 101.545 60.9778C101.465 60.9056 101.382 60.8381 101.295 60.7753L76.2948 45.7753C75.5026 45.2994 74.512 45.2994 73.7198 45.7753L48.7199 60.7753C48.6274 60.8363 48.5396 60.9038 48.4574 60.9778C48.3758 61.0353 48.2974 61.0972 48.2224 61.1628C48.1446 61.2513 48.0727 61.3447 48.0074 61.4428C47.9439 61.5166 47.8855 61.5941 47.8324 61.6753C47.7736 61.7906 47.7236 61.91 47.6824 62.0328C47.6468 62.1103 47.6149 62.1897 47.5874 62.2703C47.5289 62.4813 47.4996 62.6991 47.4999 62.9178V87.9178C47.5002 88.7953 47.9602 89.6084 48.7124 90.0603L73.7123 105.06L73.7398 105.073L73.7673 105.093C73.8986 105.161 74.0358 105.217 74.1773 105.26C74.2348 105.28 74.2898 105.313 74.3498 105.33C74.7755 105.447 75.2245 105.447 75.6498 105.33C75.7098 105.313 75.7648 105.28 75.8223 105.26C75.9639 105.217 76.1011 105.161 76.2323 105.093L76.2598 105.073L76.2873 105.06L101.287 90.0603C102.039 89.6084 102.499 88.7953 102.5 87.9178V62.9178C102.5 62.6984 102.47 62.4797 102.412 62.2678ZM74.9998 50.8328L82.6398 55.4178L62.4999 67.5028L54.8599 62.9178L74.9998 50.8328ZM72.4998 98.5002L52.4999 86.5003V67.3328L72.4998 79.3328V98.5002ZM74.9998 75.0028L67.3598 70.4178L87.4998 58.3328L95.1398 62.9178L74.9998 75.0028ZM97.4998 86.5028L77.4998 98.5027V79.3328L97.4998 67.3328V86.5028Z" fill="#2857B4"/>
<path d="M76.9997 1.41795C76.091 0.313264 74.4588 0.154827 73.3541 1.06357C73.2247 1.16982 73.106 1.28857 72.9997 1.41795L65.4998 11.4179L69.4997 14.4179L72.4997 10.4179V30.4179H77.4997V10.4179L80.4997 14.4179L84.4997 11.4179L76.9997 1.41795Z" fill="#2857B4"/>
<path d="M80.4997 136.418L77.4997 140.418V120.418H72.4997V140.418L69.4997 136.418L65.4998 139.418L72.9997 149.418C73.8282 150.522 75.395 150.746 76.4997 149.918C76.6891 149.775 76.8575 149.607 76.9997 149.418L84.4997 139.418L80.4997 136.418Z" fill="#2857B4"/>
<path d="M77.4999 35.418H72.4999V40.418H77.4999V35.418Z" fill="#2857B4"/>
<path d="M77.4999 110.418H72.4999V115.418H77.4999V110.418Z" fill="#2857B4"/>
<path d="M29.9999 72.9178H9.99992L13.9999 69.9178L10.9999 65.9178L0.99994 73.4178C-0.104745 74.2463 -0.328495 75.8131 0.499941 76.9178C0.642128 77.1072 0.810566 77.2756 0.99994 77.4178L10.9999 84.9178L13.9999 80.9178L9.99992 77.9178H29.9999V72.9178Z" fill="#2857B4"/>
<path d="M149.5 73.9178C149.358 73.7285 149.189 73.56 149 73.4178L139 65.9178L136 69.9178L140 72.9178H120V77.9178H140L136 80.9178L139 84.9178L149 77.4178C150.104 76.5894 150.328 75.0225 149.5 73.9178Z" fill="#2857B4"/>
<path d="M39.9999 72.9179H34.9999V77.9179H39.9999V72.9179Z" fill="#2857B4"/>
<path d="M115 72.9179H110V77.9179H115V72.9179Z" fill="#2857B4"/>
<path d="M44.9474 41.8303L30.8074 27.6904L35.7549 28.3954L36.4624 23.4454L24.0899 21.6679C22.7243 21.4651 21.4527 22.4079 21.2499 23.7738C21.2137 24.0173 21.2137 24.2648 21.2499 24.5079L23.0174 36.8804L27.9674 36.1729L27.2624 31.2254L41.4024 45.3653L44.9474 41.8303Z" fill="#2857B4"/>
<path d="M128.745 126.328L126.977 113.955L122.022 114.668L122.727 119.615L108.587 105.475L105.052 109.01L119.192 123.15L114.25 122.44L113.542 127.39L125.915 129.158C126.032 129.175 126.151 129.183 126.27 129.183C127.65 129.183 128.77 128.064 128.77 126.683C128.77 126.564 128.762 126.446 128.745 126.328Z" fill="#2857B4"/>
<path d="M48.4839 45.3672L44.9484 48.9026L48.4839 52.4381L52.0194 48.9026L48.4839 45.3672Z" fill="#2857B4"/>
<path d="M101.518 98.3972L97.9822 101.933L101.518 105.468L105.053 101.933L101.518 98.3972Z" fill="#2857B4"/>
<path d="M30.7975 123.145L44.9375 109.005L41.4125 105.47L27.2725 119.61L27.9775 114.663L23.0275 113.955L21.25 126.328C21.0541 127.694 22.0028 128.961 23.3697 129.157C23.4875 129.174 23.6062 129.183 23.725 129.183C23.8437 129.183 23.9625 129.175 24.08 129.158L36.4525 127.39L35.745 122.44L30.7975 123.145Z" fill="#2857B4"/>
<path d="M128.032 22.3855C127.478 21.8252 126.689 21.5624 125.91 21.678L113.537 23.4455L114.245 28.3955L119.192 27.6905L105.052 41.8305L108.587 45.3655L122.727 31.2255L122.022 36.168L126.972 36.8805L128.74 24.508C128.852 23.7287 128.589 22.9424 128.032 22.3855Z" fill="#2857B4"/>
<path d="M48.4858 98.3994L44.9503 101.935L48.4858 105.47L52.0213 101.935L48.4858 98.3994Z" fill="#2857B4"/>
<path d="M101.518 45.3583L97.9828 48.8938L101.518 52.4293L105.054 48.8938L101.518 45.3583Z" fill="#2857B4"/>
</g>
<defs>
<clipPath id="clip0">
<rect width="150" height="150" fill="white" transform="translate(0 0.445801)"/>
</clipPath>
</defs>
</svg>
