<svg width="151" height="151" viewBox="0 0 151 151" fill="none" xmlns="http://www.w3.org/2000/svg">
<g clip-path="url(#clip0)">
<path d="M46.0661 109.336C44.4489 109.336 43.1364 110.649 43.1364 112.266C43.1364 113.883 44.4489 115.196 46.0661 115.196C47.6833 115.196 48.9958 113.883 48.9958 112.266C48.9958 110.649 47.6833 109.336 46.0661 109.336Z" fill="#2857B4"/>
<path d="M132.241 56.6021L149.505 39.3378C150.232 38.6115 150.524 37.558 150.277 36.5613C150.03 35.5643 149.279 34.7698 148.298 34.4669L106.257 21.4913C102.467 9.30935 91.2028 0.938354 78.2926 0.938354C66.2914 0.938354 55.5582 8.25232 51.1159 19.2855L2.4204 34.4695C1.44159 34.7748 0.693346 35.5699 0.448132 36.5657C0.202917 37.5612 0.495885 38.613 1.22098 39.3381L18.9394 57.0565L7.76444 75.682C7.30712 76.444 7.22069 77.3724 7.52889 78.2059C7.8371 79.0394 8.50712 79.6878 9.35028 79.9687L25.5582 85.3711V130.43C25.5582 131.651 26.3158 132.744 27.4593 133.173C37.3695 136.889 74.1913 150.699 74.389 150.769C74.9703 150.974 75.6251 151.002 76.2635 150.795C76.2719 150.792 76.2807 150.791 76.2892 150.788L129.024 133.21C130.22 132.811 131.027 131.691 131.027 130.43V84.1646L148.311 78.733C149.289 78.4259 150.035 77.6308 150.279 76.6359C150.523 75.641 150.229 74.591 149.505 73.8665L132.241 56.6021ZM107.589 30.2352C107.589 29.4908 107.558 28.7481 107.502 28.0078L141.924 38.6323L127.306 53.2503L103.421 45.2894C106.125 40.7686 107.589 35.552 107.589 30.2352ZM56.1227 22.6098C59.375 13.1522 68.2845 6.79773 78.2926 6.79773C89.0741 6.79773 98.4251 14.0903 101.032 24.5317C101.495 26.3871 101.73 28.306 101.73 30.2352C101.73 35.6768 99.9242 40.7771 96.507 44.9868C92.0313 50.5069 85.3924 53.6727 78.2926 53.6727C70.618 53.6727 63.4194 49.9057 59.0348 43.5934C56.3006 39.6659 54.8551 35.0464 54.8551 30.2352C54.8551 27.6187 55.2813 25.0532 56.1227 22.6098ZM8.79012 38.6209L49.3077 25.9869C49.1044 27.3867 48.9957 28.8047 48.9957 30.2349C48.9957 34.952 50.1131 39.5209 52.243 43.6432L23.4198 53.2503L8.79012 38.6209ZM14.668 75.5648L23.9316 60.1248L70.9716 75.8048L61.7082 91.2448C56.6852 89.5705 20.031 77.3522 14.668 75.5648ZM72.4332 143.781L31.4176 128.4V87.3243C63.6881 98.0241 62.1122 97.6974 63.0107 97.6974C64.018 97.6974 64.9824 97.1762 65.5235 96.2748L72.4332 84.7579V143.781ZM75.3629 71.0924L31.8933 56.6027L55.5635 48.7131C61.1035 55.5237 69.4434 59.5321 78.2926 59.5321C86.4787 59.5321 94.1723 56.1633 99.7062 50.2277L118.832 56.6024L75.3629 71.0924ZM125.168 128.319L78.2926 143.944V82.5316L88.6786 95.5131C89.4342 96.4573 90.6919 96.8399 91.8447 96.4778L125.168 86.0062V128.319ZM92.0011 90.2871L80.2754 75.631L127.306 59.9543L141.944 74.5922L92.0011 90.2871Z" fill="#2857B4"/>
<path d="M64.6731 115.839L58.1575 113.396C56.6426 112.828 54.9539 113.595 54.3855 115.11C53.8175 116.625 54.5851 118.314 56.1 118.882L62.6156 121.326C64.1338 121.895 65.8204 121.123 66.3876 119.611C66.9557 118.096 66.1881 116.407 64.6731 115.839Z" fill="#2857B4"/>
<path d="M64.6729 128.355L47.0948 121.763C45.5798 121.195 43.8912 121.963 43.3228 123.477C42.7544 124.992 43.5223 126.681 45.0373 127.249L62.6154 133.841C62.9543 133.968 63.3018 134.029 63.6437 134.029C64.8299 134.029 65.9461 133.303 66.3874 132.127C66.9557 130.612 66.1881 128.923 64.6729 128.355Z" fill="#2857B4"/>
<path d="M95.013 19.374C93.869 18.2296 92.0139 18.2299 90.8696 19.374L75.363 34.8808L71.5752 31.093C70.4312 29.949 68.5761 29.949 67.4318 31.093C66.2874 32.237 66.2877 34.0921 67.4318 35.2365L73.2914 41.0955C74.4355 42.2396 76.2905 42.2396 77.4349 41.0955L95.013 23.5174C96.1571 22.3734 96.1571 20.5183 95.013 19.374Z" fill="#2857B4"/>
</g>
<defs>
<clipPath id="clip0">
<rect width="150" height="150" fill="white" transform="translate(0.363281 0.937439)"/>
</clipPath>
</defs>
</svg>
