<svg width="150" height="151" viewBox="0 0 150 151" fill="none" xmlns="http://www.w3.org/2000/svg">
<g clip-path="url(#clip0)">
<path d="M119.642 38.2159C120.785 37.0704 120.785 35.2153 119.642 34.0732C118.497 32.9276 116.643 32.9276 115.499 34.0732C114.354 35.2153 114.354 37.0704 115.499 38.2159C116.643 39.358 118.497 39.358 119.642 38.2159Z" fill="#2857B4"/>
<path d="M38.229 44.2824C39.3722 43.1403 39.3722 41.2852 38.229 40.1397C37.0834 38.9976 35.2295 38.9976 34.0862 40.1397C32.9406 41.2852 32.9406 43.1403 34.0862 44.2824C35.2295 45.428 37.0834 45.428 38.229 44.2824Z" fill="#2857B4"/>
<path d="M20.9884 61.1522L29.7569 52.3803C30.9013 51.2359 30.9002 49.3819 29.7569 48.2375C28.6125 47.0931 26.7574 47.0943 25.613 48.2375L16.8445 57.0094C15.7013 58.1538 15.7013 60.0089 16.8457 61.1522C17.989 62.2966 19.844 62.2966 20.9884 61.1522Z" fill="#2857B4"/>
<path d="M129.307 52.6561C130.451 53.8005 132.306 53.8005 133.451 52.6561C134.595 51.5128 134.595 49.6577 133.451 48.5133L127.606 42.6688C126.462 41.5244 124.607 41.5244 123.462 42.6688C122.319 43.8121 122.319 45.6671 123.462 46.8116L129.307 52.6561Z" fill="#2857B4"/>
<path d="M149.142 49.2597L116.001 16.113C114.882 14.9926 113.073 14.9652 111.921 16.0524C109.347 18.4774 97.2496 29.87 97.0745 30.0405C97.0642 30.0508 97.0528 30.0599 97.0425 30.0702C94.1769 32.9358 91.3559 34.213 87.8952 34.213C80.8205 34.213 75.4006 36.2111 70.8996 40.474C67.2089 36.979 63.0261 35.172 57.1884 34.5689L42.5423 19.9216C41.3979 18.7772 39.5428 18.7772 38.3984 19.9216L0.85832 57.4628C-0.256335 58.5763 -0.292956 60.3753 0.793088 61.5346C0.815976 61.5586 0.835431 61.5827 0.85832 61.6056C0.85832 61.6056 25.2869 85.9964 25.3212 86.0295L24.2867 87.0641C20.2812 91.0695 20.2789 97.556 24.2878 101.565C26.1852 103.46 28.7922 104.586 31.6441 104.558C31.6132 107.372 32.7004 109.977 34.6459 111.923C36.6223 113.899 39.2635 114.948 42.0021 114.919C41.9724 117.731 43.0584 120.336 45.0039 122.281C46.9013 124.176 49.5072 125.302 52.3602 125.274C52.3293 128.088 53.4165 130.694 55.362 132.639C59.3594 136.636 65.8631 136.636 69.8616 132.639L70.8985 131.602L71.9353 132.639C75.9327 136.636 82.4364 136.636 86.4349 132.639C88.3759 130.698 89.4653 128.097 89.4379 125.279C92.236 125.308 94.8429 124.231 96.7941 122.28C98.8197 120.254 99.8177 117.584 99.7902 114.924C102.631 114.953 105.226 113.848 107.151 111.923C109.1 109.975 110.185 107.365 110.153 104.558C112.875 104.585 115.522 103.55 117.51 101.564C121.517 97.5572 121.517 91.0718 117.51 87.0641L116.477 86.0307C136.903 65.627 111.064 91.4872 149.142 53.4024C150.286 52.258 150.286 50.4041 149.142 49.2597ZM7.07361 59.533L40.4709 26.1369L51.7262 37.3922L18.3357 70.7872L7.07361 59.533ZM28.4294 97.421C26.7128 95.7044 26.7128 92.9246 28.4294 91.2069L38.7886 80.8477C40.5029 79.1345 43.2896 79.1356 45.0028 80.8477C46.7228 82.5689 46.7228 85.344 45.0028 87.0641L34.647 97.4199C32.9327 99.1319 30.1426 99.1319 28.4294 97.421ZM38.7886 107.78C37.0709 106.061 37.0686 103.283 38.7886 101.564L49.1455 91.2069C50.8656 89.488 53.6419 89.4868 55.362 91.2069C57.0751 92.92 57.082 95.701 55.362 97.4199C55.3608 97.421 55.3608 97.421 55.3608 97.4221L45.0028 107.78C43.2896 109.493 40.5018 109.493 38.7886 107.78ZM49.1455 118.136C47.4289 116.42 47.4289 113.64 49.1455 111.923L59.5047 101.564C61.2179 99.8506 64.0045 99.8506 65.72 101.566C67.4114 103.254 67.4618 106.035 65.7189 107.779C65.7189 107.779 65.7189 107.779 65.7177 107.78L55.3631 118.135C53.6488 119.848 50.8587 119.848 49.1455 118.136ZM59.5047 128.496C57.787 126.777 57.7847 123.999 59.5047 122.28L69.8616 111.923C71.5794 110.205 74.358 110.203 76.0769 111.923C77.8061 113.652 77.7809 116.434 76.0769 118.137L65.7189 128.496C64.0045 130.208 61.2179 130.208 59.5047 128.496ZM82.291 128.496C80.579 130.209 77.7912 130.209 76.078 128.496L75.0412 127.459L80.2208 122.28C80.571 121.93 80.8868 121.555 81.1798 121.167L82.2899 122.279C82.291 122.279 82.291 122.279 82.2922 122.28L82.2933 122.281C84.0111 123.999 84.0111 126.776 82.291 128.496ZM113.367 97.4199C111.653 99.1319 108.864 99.1319 107.151 97.4199L93.6859 83.9559C92.5415 82.8115 90.6864 82.8115 89.542 83.9559C88.3988 85.0991 88.3988 86.9542 89.542 88.0986L103.008 101.565C104.726 103.282 104.727 106.06 103.007 107.78C101.287 109.5 98.5073 109.493 96.7941 107.78L83.329 94.3116C82.1858 93.1684 80.3307 93.1684 79.1863 94.3116C78.0418 95.456 78.0418 97.3111 79.1851 98.4555L92.6502 111.923C94.3634 113.636 94.3634 116.424 92.6502 118.136C91.8217 118.966 90.7173 119.423 89.542 119.423C86.7577 119.423 85.8605 117.231 83.2203 114.922C83.194 112.224 82.132 109.691 80.2219 107.781C78.2787 105.836 75.6764 104.75 72.8645 104.777C72.8932 101.961 71.8025 99.3585 69.8616 97.4199C67.836 95.3942 65.1661 94.3975 62.5054 94.4249C62.5637 88.6468 57.8842 84.0028 52.1485 84.0623C52.1771 81.2162 51.0647 78.6241 49.1455 76.7049C45.1481 72.7063 38.6433 72.7063 34.6459 76.7049L29.464 81.8868L22.4831 74.9265L56.9641 40.4397C61.2339 40.9272 64.1087 42.1552 66.7442 44.6054L58.4667 52.8817C53.9017 57.4502 53.9017 64.8843 58.4679 69.4551C63.0375 74.0213 70.4727 74.0224 75.0412 69.4539L83.329 61.1673C88.6849 66.5242 109.463 87.3033 113.366 91.208C115.08 92.92 115.08 95.7078 113.367 97.4199ZM112.333 81.8868L87.4718 57.0245L89.5432 54.9531C90.6876 53.8087 90.6876 51.9536 89.5432 50.8092C88.3988 49.6659 86.5448 49.6659 85.3993 50.8092L70.8973 65.3123C68.6142 67.5954 64.8949 67.5954 62.6106 65.3123C60.3275 63.0269 60.3275 59.3087 62.6095 57.0245C65.6147 54.0204 71.5382 48.0981 74.54 45.0975C78.0144 41.623 82.1343 40.0724 87.8952 40.0724C92.0391 40.0724 95.6165 38.8272 98.9685 36.1905L128.141 66.1203C109.071 85.1403 112.835 81.3855 112.333 81.8868ZM132.285 61.9764L103.292 32.2309L113.869 22.2665L142.928 51.3311L132.285 61.9764Z" fill="#2857B4"/>
</g>
<defs>
<clipPath id="clip0">
<rect width="150" height="150" fill="white" transform="translate(0 0.445801)"/>
</clipPath>
</defs>
</svg>
