<svg width="150" height="151" viewBox="0 0 150 151" fill="none" xmlns="http://www.w3.org/2000/svg">
<path d="M139.499 68.2279L135.615 52.6903C136.677 52.4647 137.474 51.5225 137.474 50.3937V47.8885C137.474 42.4493 133.049 38.0243 127.61 38.0243H109.917V32.8569C109.917 30.1803 107.739 28.003 105.063 28.003H14.8746C12.198 28.003 10.0207 30.1803 10.0207 32.8569V75.4458C10.0207 76.7427 11.0722 77.7945 12.3694 77.7945C13.6664 77.7945 14.7182 76.743 14.7182 75.4458V32.8569C14.7182 32.7705 14.7882 32.7005 14.8746 32.7005H105.062C105.149 32.7005 105.219 32.7705 105.219 32.8569V75.4464C105.219 76.7433 106.27 77.7951 107.568 77.7951C108.865 77.7951 109.916 76.7436 109.916 75.4464V72.7839H137.622C137.624 72.7839 137.626 72.7844 137.628 72.7844C137.631 72.7844 137.633 72.7841 137.635 72.7841C141.044 72.7865 143.939 75.0242 144.933 78.1077H137.63C136.333 78.1077 135.281 79.1591 135.281 80.4564V85.4668C135.281 89.5247 138.582 92.8258 142.64 92.8258H145.302V103.16H139.161C137.144 97.3346 131.606 93.1387 125.104 93.1387C118.601 93.1387 113.064 97.3346 111.047 103.16H109.916V85.4665C109.916 84.1695 108.864 83.1177 107.567 83.1177C106.27 83.1177 105.218 84.1692 105.218 85.4665V103.159H56.4894C54.472 97.3341 48.9346 93.1382 42.4321 93.1382C35.9297 93.1382 30.392 97.3341 28.3749 103.159H14.8746C14.7882 103.159 14.7182 103.089 14.7182 103.003V97.8356H24.8956C26.1926 97.8356 27.2443 96.7841 27.2443 95.4869C27.2443 94.1896 26.1929 93.1382 24.8956 93.1382H2.34873C1.05176 93.1382 0 94.1896 0 95.4869C0 96.7841 1.05146 97.8356 2.34873 97.8356H10.021V103.003C10.021 105.679 12.1983 107.857 14.8749 107.857H27.5616C27.561 107.909 27.5575 107.961 27.5575 108.013C27.5575 116.215 34.2305 122.888 42.4321 122.888C50.6338 122.888 57.3067 116.215 57.3067 108.013C57.3067 107.96 57.3032 107.909 57.3026 107.857H110.233C110.233 107.909 110.229 107.961 110.229 108.013C110.229 116.215 116.902 122.888 125.104 122.888C133.305 122.888 139.978 116.215 139.978 108.013C139.978 107.96 139.975 107.909 139.974 107.857H147.651C148.948 107.857 150 106.805 150 105.508V80.4558C150 74.2707 145.436 69.1317 139.499 68.2279ZM109.917 42.7214H127.61C130.459 42.7214 132.777 45.0394 132.777 47.8885V48.045H109.917V42.7214ZM109.917 68.0867V52.7422H130.786L134.622 68.0867H109.917ZM42.4321 118.191C36.8203 118.191 32.2547 113.626 32.2547 108.014C32.2547 102.402 36.8203 97.8362 42.4321 97.8362C48.0439 97.8362 52.6096 102.402 52.6096 108.014C52.6096 113.626 48.0439 118.191 42.4321 118.191ZM125.104 118.191C119.493 118.191 114.927 113.626 114.927 108.014C114.927 102.402 119.493 97.8362 125.104 97.8362C130.716 97.8362 135.282 102.402 135.282 108.014C135.282 113.626 130.716 118.191 125.104 118.191ZM145.303 88.1284H142.641C141.173 88.1284 139.979 86.9342 139.979 85.4665V82.8046H145.303V88.1284H145.303Z" fill="#2857B4"/>
<path d="M42.432 103.16C39.7555 103.16 37.5781 105.337 37.5781 108.014C37.5781 110.69 39.7555 112.868 42.432 112.868C45.1086 112.868 47.2859 110.69 47.2859 108.014C47.2859 105.337 45.1086 103.16 42.432 103.16Z" fill="#2857B4"/>
<path d="M125.104 103.16C122.428 103.16 120.25 105.337 120.25 108.014C120.25 110.69 122.428 112.868 125.104 112.868C127.781 112.868 129.958 110.69 129.958 108.014C129.958 105.337 127.781 103.16 125.104 103.16Z" fill="#2857B4"/>
<path d="M97.5468 93.1391H62.4738C61.1768 93.1391 60.1251 94.1906 60.1251 95.4878C60.1251 96.7851 61.1765 97.8366 62.4738 97.8366H97.5468C98.8438 97.8366 99.8956 96.7851 99.8956 95.4878C99.8956 94.1906 98.8441 93.1391 97.5468 93.1391Z" fill="#2857B4"/>
<path d="M37.4217 83.118H7.35905C6.06207 83.118 5.01031 84.1695 5.01031 85.4668C5.01031 86.764 6.06178 87.8155 7.35905 87.8155H37.4217C38.7187 87.8155 39.7705 86.764 39.7705 85.4668C39.7705 84.1695 38.7187 83.118 37.4217 83.118Z" fill="#2857B4"/>
<path d="M81.6711 51.2378C80.7541 50.3208 79.2667 50.3208 78.3497 51.2381L57.4634 72.1241L46.598 61.2588C45.6807 60.3415 44.1936 60.3415 43.2766 61.2588C42.3594 62.1761 42.3594 63.6629 43.2766 64.5802L55.8028 77.1064C56.2613 77.5652 56.8625 77.7943 57.4634 77.7943C58.0642 77.7943 58.6657 77.5652 59.1239 77.1064L81.6708 54.5595C82.5881 53.6419 82.5881 52.1551 81.6711 51.2378Z" fill="#2857B4"/>
</svg>
